<?xml version="1.0" encoding="UTF-8"?>
<!DOCTYPE svg PUBLIC "-//W3C//DTD SVG 1.1//EN" "http://www.w3.org/Graphics/SVG/1.1/DTD/svg11.dtd">
<!-- Creator: CorelDRAW X7 -->
<svg xmlns="http://www.w3.org/2000/svg" xml:space="preserve" width="39.2944mm" height="11.8298mm" version="1.1" style="shape-rendering:geometricPrecision; text-rendering:geometricPrecision; image-rendering:optimizeQuality; fill-rule:evenodd; clip-rule:evenodd"
viewBox="0 0 1243 374"
 xmlns:xlink="http://www.w3.org/1999/xlink">
 <defs>
  <style type="text/css">
   <![CDATA[
    .fil0 {fill:#FEFEFE;fill-rule:nonzero}
   ]]>
  </style>
 </defs>
 <g id="Warstwa_x0020_1">
  <metadata id="CorelCorpID_0Corel-Layer"/>
  <path class="fil0" d="M145 298c-5,1 -10,1 -16,2 -6,1 -11,1 -17,1 -15,0 -30,-2 -43,-6 -14,-4 -26,-11 -36,-21 -11,-8 -18,-20 -24,-33 -6,-13 -9,-29 -9,-47 0,-20 4,-39 11,-59 8,-20 18,-38 32,-53 14,-16 29,-28 48,-38 18,-9 38,-15 59,-15 11,0 21,2 28,4 7,3 12,6 17,9 6,5 10,9 14,13 4,6 10,11 15,17 0,0 -1,1 -2,3 -3,1 -5,3 -8,4 -3,1 -6,3 -9,5 -4,1 -7,2 -10,2 -2,0 -5,-2 -9,-4 -5,-4 -11,-9 -18,-14 -6,-6 -16,-8 -29,-8 -18,0 -35,4 -50,11 -14,8 -28,18 -38,29 -11,13 -19,27 -25,43 -7,16 -9,33 -9,49 0,29 8,51 25,65 17,14 40,21 70,21 16,0 31,-4 44,-11 14,-6 27,-15 37,-26 11,-13 21,-25 30,-39 9,-14 18,-29 26,-43 -19,1 -35,2 -49,2 -14,0 -25,0 -31,0 -4,-1 -9,-2 -13,-3 -3,0 -6,-1 -8,-3 -3,-2 -4,-6 -5,-10 -2,-4 -2,-10 -2,-18l0 -5c0,-1 0,-2 0,-3 4,2 11,3 20,4 8,2 19,3 30,4 11,1 23,3 35,3 13,1 26,2 38,3 11,-21 24,-41 38,-58 14,-17 27,-31 41,-42 14,-11 27,-19 40,-25 12,-5 23,-8 32,-8 6,0 11,1 14,2 3,2 4,9 4,20 0,1 0,4 0,7 0,3 0,4 0,5 -9,13 -19,30 -30,48 -11,18 -22,39 -32,60 10,1 18,1 24,1 6,1 11,1 13,2 3,0 6,0 7,2 0,0 1,0 1,1 0,3 -5,4 -13,4 -10,1 -21,2 -37,3 -6,12 -12,26 -17,41 -4,15 -7,28 -7,39 0,9 2,17 7,23 4,7 13,11 25,11 8,0 16,0 23,-3 8,-2 14,-5 19,-8 5,-4 10,-7 13,-10 3,-2 6,-4 6,-4 0,0 1,0 2,1 1,1 1,3 1,3l0 0c1,0 -1,1 -3,5 -4,4 -8,9 -14,13 -7,5 -15,9 -23,13 -9,4 -19,6 -30,6 -4,0 -9,-1 -15,-4 -5,-2 -11,-5 -15,-9 -6,-3 -9,-8 -13,-14 -3,-6 -5,-12 -5,-17 0,-17 2,-32 4,-45 3,-13 6,-27 10,-40 -16,1 -33,2 -50,2 -8,12 -17,25 -25,40 -8,14 -18,28 -29,41 -11,13 -24,25 -38,36 -13,11 -29,18 -47,23l0 0 0 0zm229 -245c-14,9 -27,20 -40,35 -12,14 -24,30 -36,49 7,0 14,0 22,1 7,0 14,1 19,2 6,-17 11,-33 18,-48 5,-14 11,-28 17,-39l0 0 0 0zm215 70c0,0 0,2 1,2 0,1 0,2 0,2 0,2 0,3 0,3 0,0 0,0 0,0 0,0 0,1 0,2 -1,1 -1,3 -3,5l0 0c-10,23 -22,47 -35,73 -11,28 -22,54 -31,81 8,1 16,1 26,2 8,1 16,3 23,5 7,3 13,6 17,11 4,4 7,10 7,18 0,5 -2,11 -4,17 -3,5 -7,10 -11,15 -5,4 -10,8 -17,11 -5,2 -12,4 -18,4 -11,0 -22,-4 -32,-14 -10,-8 -16,-19 -18,-33 -8,0 -16,2 -27,3 -11,2 -21,4 -31,5 -9,2 -18,4 -23,6 -7,2 -10,4 -10,6 -3,-9 -3,-17 -2,-23 2,-6 5,-11 7,-15 3,-4 7,-7 10,-9 3,-1 7,-2 8,-3 10,-1 21,-3 32,-4 11,-1 25,-1 39,-2 0,-2 0,-4 0,-5 1,-2 2,-4 2,-6 -3,2 -8,4 -12,5 -4,2 -9,2 -16,3 -11,0 -20,-1 -26,-7 -7,-4 -12,-10 -15,-17 -4,-7 -7,-13 -9,-21 -1,-8 -2,-14 -3,-19 0,-12 2,-24 7,-38 4,-13 10,-25 18,-37 8,-10 19,-20 31,-27 11,-7 23,-12 38,-13 8,-1 16,0 22,3 6,2 12,3 16,6 3,-3 5,-7 7,-11 2,-3 2,-7 3,-10 5,2 9,5 13,7 4,3 7,4 10,8 3,3 5,6 6,10l0 1 0 0 0 0zm-42 197c-5,0 -10,0 -15,0 -5,1 -10,2 -14,3l0 0 -1 0c-1,0 -1,0 -2,0 -1,1 -1,1 -3,1l-9 1c1,0 2,0 4,0 1,2 3,2 4,2 1,0 1,0 3,0 2,9 6,17 12,23 7,7 14,10 22,10 6,0 12,-3 20,-7 7,-5 11,-12 11,-23 0,-3 -2,-6 -4,-8 -3,-2 -9,-3 -16,-3 -2,0 -4,0 -5,0 -3,0 -5,0 -7,1l0 0 0 0zm-44 -58c5,-20 11,-39 16,-56 7,-18 12,-34 17,-48 -8,-7 -18,-10 -29,-10 -8,1 -15,4 -24,8 -7,5 -14,11 -21,20 -6,7 -11,16 -15,26 -4,10 -5,20 -4,29 0,5 0,10 1,15 1,5 3,10 5,13 4,5 6,8 12,10 4,2 10,4 17,3 5,-1 11,-1 16,-3 7,-3 9,-5 9,-7l0 0 0 0zm264 -50c0,1 -1,6 -4,14 -3,8 -7,17 -13,25 -4,9 -11,16 -19,24 -7,7 -15,11 -25,11 -5,0 -11,-2 -16,-5 -5,-4 -10,-10 -14,-21 -3,2 -4,6 -7,9 -3,2 -6,5 -9,8 -4,3 -9,4 -14,7 -4,1 -11,2 -19,2 -10,0 -18,-2 -24,-7 -6,-5 -11,-10 -15,-17 -3,-7 -6,-14 -7,-22 -1,-8 -2,-14 -2,-20 0,-11 2,-22 7,-35 4,-13 11,-25 19,-37 8,-10 18,-20 31,-26 11,-8 24,-12 39,-12 8,0 15,1 20,3 4,2 8,5 13,7 1,-2 2,-5 4,-8 1,-2 1,-4 2,-5 0,0 2,0 5,2 4,2 6,5 10,8 4,3 8,6 10,10 4,4 5,8 5,12 0,2 -1,5 -1,8 -1,4 -4,8 -7,13 -8,13 -15,28 -23,45 -7,16 -11,31 -11,44 0,6 1,10 1,13 2,2 4,4 8,4 6,0 13,-4 23,-13 9,-9 18,-24 27,-44 0,0 0,0 1,0 4,0 5,0 5,1 0,2 0,3 0,2l0 0 0 0zm-94 39c0,-3 -1,-5 -1,-7 0,-2 0,-3 0,-6 0,-12 2,-26 6,-40 3,-14 7,-27 13,-39 -4,-4 -7,-6 -10,-8 -3,-2 -6,-3 -11,-3 -9,0 -16,3 -24,8 -8,5 -15,10 -22,18 -7,7 -12,17 -16,26 -4,9 -6,19 -6,28 0,5 0,10 1,15 1,5 2,9 4,13 2,5 6,8 10,11 5,3 10,4 18,4 10,0 19,-2 24,-9 6,-5 11,-9 14,-11l0 0 0 0zm241 -35c0,0 1,1 1,1 0,1 0,1 0,2 0,0 0,0 0,1 0,0 0,1 -1,2 -2,1 -4,1 -9,1 -4,0 -8,0 -12,0 -4,-1 -8,-3 -14,-5 -1,6 -5,13 -10,22 -4,8 -9,15 -15,22 -6,7 -12,12 -19,18 -8,4 -16,7 -25,7 -10,0 -18,-2 -24,-5 -6,-4 -12,-8 -15,-13 -5,-5 -8,-11 -10,-18 -2,-8 -4,-16 -5,-23 0,-12 1,-24 4,-35 2,-10 4,-21 7,-30 4,-9 7,-18 10,-24 4,-7 7,-12 9,-16 3,-5 6,-11 10,-16 3,-7 4,-13 6,-17 1,0 2,0 5,3 3,1 7,4 10,7 4,4 7,7 10,10 2,4 4,8 4,12 0,0 0,1 0,5 -1,3 -2,6 -4,11 -3,7 -7,14 -11,21 -5,7 -9,15 -13,22 -4,9 -7,17 -11,25 -2,10 -3,18 -3,28 0,7 1,14 3,19 4,5 8,7 16,7 7,0 13,-1 19,-5 5,-3 11,-7 15,-13 5,-5 9,-11 13,-16 4,-7 7,-13 10,-18 -5,-4 -8,-10 -12,-18 -3,-7 -3,-15 -3,-24 0,-8 0,-15 3,-23 2,-7 6,-13 9,-20 3,-5 8,-9 12,-12 4,-4 9,-6 13,-6 3,0 6,2 9,5 2,4 3,10 3,20 0,14 -2,28 -5,40 -2,13 -7,26 -12,40 4,2 8,4 12,5 5,1 9,1 12,1 2,0 4,0 5,0 2,0 3,0 3,0l0 0 0 0zm-45 -16c5,-9 9,-19 12,-27 4,-10 5,-19 5,-30 0,-9 -1,-13 -5,-13 -3,0 -5,2 -7,6 -2,3 -5,7 -6,12 -1,4 -3,9 -4,14 -1,4 -1,9 -1,11 0,5 0,10 1,13 1,5 4,9 5,14l0 0 0 0zm198 16c0,0 0,1 1,1 0,1 0,1 0,2 0,0 0,0 0,1 0,0 0,1 -2,2 -1,1 -4,1 -8,1 -4,0 -8,0 -12,0 -5,-1 -9,-3 -14,-5 -2,6 -6,13 -10,22 -4,8 -10,15 -15,22 -6,7 -13,12 -20,18 -8,4 -16,7 -24,7 -10,0 -18,-2 -24,-5 -6,-4 -11,-8 -16,-13 -4,-5 -8,-11 -9,-18 -3,-8 -4,-16 -6,-23 0,-12 2,-24 4,-35 3,-10 5,-21 9,-30 3,-9 5,-18 9,-24 3,-7 6,-12 9,-16 3,-5 6,-11 9,-16 3,-7 5,-13 6,-17 1,0 3,0 6,3 3,1 6,4 9,7 4,4 7,7 10,10 4,4 4,8 4,12 0,0 0,1 0,5 0,3 -1,6 -4,11 -3,7 -6,14 -11,21 -4,7 -8,15 -12,22 -5,9 -8,17 -10,25 -3,10 -5,18 -5,28 0,7 2,14 5,19 2,5 7,7 15,7 7,0 12,-1 18,-5 6,-3 11,-7 15,-13 6,-5 10,-11 13,-16 4,-7 8,-13 11,-18 -6,-4 -9,-10 -12,-18 -2,-7 -4,-15 -4,-24 0,-8 1,-15 4,-23 2,-7 5,-13 9,-20 4,-5 7,-9 12,-12 4,-4 9,-6 12,-6 4,0 7,2 9,5 2,4 4,10 4,20 0,14 -2,28 -5,40 -3,13 -8,26 -13,40 4,2 9,4 13,5 4,1 8,1 12,1 2,0 3,0 5,0 1,0 2,0 3,0l0 0 0 0zm-45 -16c4,-9 8,-19 11,-27 4,-10 5,-19 5,-30 0,-9 -1,-13 -5,-13 -2,0 -4,2 -7,6 -2,3 -4,7 -6,12 -1,4 -3,9 -4,14 0,4 -1,9 -1,11 0,5 1,10 2,13 1,5 3,9 5,14l0 0 0 0zm221 12c0,1 -3,6 -5,14 -3,8 -7,17 -12,25 -5,9 -12,16 -20,24 -7,7 -15,11 -25,11 -6,0 -11,-2 -16,-5 -5,-4 -10,-10 -14,-21 -3,2 -4,6 -7,9 -2,2 -6,5 -9,8 -4,3 -8,4 -13,7 -5,1 -12,2 -20,2 -10,0 -18,-2 -24,-7 -6,-5 -11,-10 -15,-17 -3,-7 -5,-14 -7,-22 -1,-8 -2,-14 -2,-20 0,-11 2,-22 7,-35 4,-13 11,-25 19,-37 9,-10 19,-20 30,-26 12,-8 25,-12 40,-12 8,0 15,1 20,3 4,2 8,5 13,7 2,-2 2,-5 4,-8 1,-2 1,-4 2,-5 1,0 2,0 6,2 3,2 5,5 9,8 4,3 8,6 10,10 4,4 5,8 5,12 0,2 -1,5 -1,8 -1,4 -4,8 -7,13 -8,13 -15,28 -23,45 -7,16 -11,31 -11,44 0,6 1,10 1,13 2,2 4,4 8,4 6,0 13,-4 23,-13 9,-9 19,-24 27,-44 0,0 0,0 2,0 2,0 4,0 4,1 1,2 1,3 1,2l0 0 0 0zm-95 39c0,-3 -1,-5 -1,-7 0,-2 0,-3 0,-6 0,-12 2,-26 6,-40 3,-14 7,-27 13,-39 -4,-4 -7,-6 -10,-8 -3,-2 -6,-3 -11,-3 -8,0 -17,3 -24,8 -8,5 -15,10 -22,18 -7,7 -12,17 -15,26 -5,9 -7,19 -7,28 0,5 0,10 1,15 1,5 2,9 4,13 2,5 6,8 10,11 4,3 10,4 18,4 10,0 18,-2 24,-9 6,-5 11,-9 14,-11l0 0 0 0z"/>
 </g>
</svg>
